<svg xmlns="http://www.w3.org/2000/svg" width="62.269" height="106.188" viewBox="0 0 62.269 106.188">
  <g id="chain_10216732" transform="translate(-14 -0.609)">
    <g id="Group_12948" data-name="Group 12948" transform="translate(40.782 95.898)">
      <path id="Path_4660" data-name="Path 4660" d="M36.825,59.783v3.348a1.52,1.52,0,0,1-.5,1.172,1.9,1.9,0,0,1-1.339.5H33.142a1.9,1.9,0,0,1-1.339-.5,1.52,1.52,0,0,1-.5-1.172V59.783a1.678,1.678,0,0,1,1.674-1.674h1.842a1.689,1.689,0,0,1,2.009,1.674Z" transform="translate(-29.793 -58.087)" fill="none" stroke="#000" stroke-linecap="round" stroke-linejoin="round" stroke-width="2"/>
      <path id="Path_4661" data-name="Path 4661" d="M33,62.2v3.013" transform="translate(-28.647 -55.315)" fill="none" stroke="#000" stroke-linecap="round" stroke-linejoin="round" stroke-width="2"/>
      <g id="Group_12947" data-name="Group 12947" transform="translate(0 6.216)">
        <path id="Path_4662" data-name="Path 4662" d="M32.576,61.8,30.4,63.976" transform="translate(-30.4 -61.8)" fill="none" stroke="#000" stroke-linecap="round" stroke-linejoin="round" stroke-width="2"/>
        <path id="Path_4663" data-name="Path 4663" d="M34.3,61.8l2.176,2.176" transform="translate(-27.771 -61.8)" fill="none" stroke="#000" stroke-linecap="round" stroke-linejoin="round" stroke-width="2"/>
      </g>
    </g>
    <g id="Group_12959" data-name="Group 12959" transform="translate(15 89.39)">
      <g id="Group_12953" data-name="Group 12953">
        <g id="Group_12950" data-name="Group 12950" transform="translate(12.389 8.371)">
          <path id="Path_4664" data-name="Path 4664" d="M25.5,59.9l-1,3.013" transform="translate(-20.984 -58.728)" fill="none" stroke="#000" stroke-linecap="round" stroke-linejoin="round" stroke-width="2"/>
          <g id="Group_12949" data-name="Group 12949">
            <path id="Path_4665" data-name="Path 4665" d="M24.911,59.2,22.4,60.539" transform="translate(-22.4 -59.2)" fill="none" stroke="#000" stroke-linecap="round" stroke-linejoin="round" stroke-width="2"/>
            <path id="Path_4666" data-name="Path 4666" d="M26.4,60.1l1.339,2.511" transform="translate(-19.703 -58.593)" fill="none" stroke="#000" stroke-linecap="round" stroke-linejoin="round" stroke-width="2"/>
          </g>
        </g>
        <g id="Group_12952" data-name="Group 12952">
          <path id="Path_4667" data-name="Path 4667" d="M18.376,55.4,16.2,57.409" transform="translate(-14.191 -53.391)" fill="none" stroke="#000" stroke-linecap="round" stroke-linejoin="round" stroke-width="2"/>
          <g id="Group_12951" data-name="Group 12951">
            <path id="Path_4668" data-name="Path 4668" d="M18.013,54.2H15" transform="translate(-15 -54.2)" fill="none" stroke="#000" stroke-linecap="round" stroke-linejoin="round" stroke-width="2"/>
            <path id="Path_4669" data-name="Path 4669" d="M18.7,56.1v2.846" transform="translate(-12.506 -52.919)" fill="none" stroke="#000" stroke-linecap="round" stroke-linejoin="round" stroke-width="2"/>
          </g>
        </g>
      </g>
      <g id="Group_12958" data-name="Group 12958" transform="translate(39.845)">
        <g id="Group_12955" data-name="Group 12955" transform="translate(0 8.371)">
          <path id="Path_4670" data-name="Path 4670" d="M40.9,59.9l1,3.013" transform="translate(-37.384 -58.728)" fill="none" stroke="#000" stroke-linecap="round" stroke-linejoin="round" stroke-width="2"/>
          <g id="Group_12954" data-name="Group 12954">
            <path id="Path_4671" data-name="Path 4671" d="M42.1,59.2l2.511,1.339" transform="translate(-36.575 -59.2)" fill="none" stroke="#000" stroke-linecap="round" stroke-linejoin="round" stroke-width="2"/>
            <path id="Path_4672" data-name="Path 4672" d="M40.139,60.1,38.8,62.611" transform="translate(-38.8 -58.593)" fill="none" stroke="#000" stroke-linecap="round" stroke-linejoin="round" stroke-width="2"/>
          </g>
        </g>
        <g id="Group_12957" data-name="Group 12957" transform="translate(14.23)">
          <path id="Path_4673" data-name="Path 4673" d="M48.5,55.4l2.176,2.009" transform="translate(-46.491 -53.391)" fill="none" stroke="#000" stroke-linecap="round" stroke-linejoin="round" stroke-width="2"/>
          <g id="Group_12956" data-name="Group 12956">
            <path id="Path_4674" data-name="Path 4674" d="M49.2,54.2h3.013" transform="translate(-46.019 -54.2)" fill="none" stroke="#000" stroke-linecap="round" stroke-linejoin="round" stroke-width="2"/>
            <path id="Path_4675" data-name="Path 4675" d="M47.3,56.1v2.846" transform="translate(-47.3 -52.919)" fill="none" stroke="#000" stroke-linecap="round" stroke-linejoin="round" stroke-width="2"/>
          </g>
        </g>
      </g>
    </g>
    <path id="Path_4676" data-name="Path 4676" d="M51.6,57.157l-.67.67-.67.67a1.821,1.821,0,0,1-2.511,0L46.239,56.99l-.837-.837a1.821,1.821,0,0,1,0-2.511L46.742,52.3a1.821,1.821,0,0,1,2.511,0l.67.67L51.6,54.646a1.821,1.821,0,0,1,0,2.511Z" transform="translate(20.157 33.572)" fill="none" stroke="#000" stroke-linecap="round" stroke-linejoin="round" stroke-width="2"/>
    <path id="Path_4677" data-name="Path 4677" d="M44.569,61.466a1.509,1.509,0,0,1-1,1l-.837.335-.837.335a1.264,1.264,0,0,1-1.339-.167,1.715,1.715,0,0,1-.837-1l-.5-1.339-.67-1.842a1.7,1.7,0,0,1,1.172-2.176l1.674-.67a1.7,1.7,0,0,1,2.176,1.172l.5,1.507.5,1.674a1.43,1.43,0,0,1,0,1.172Z" transform="translate(15.801 36.295)" fill="none" stroke="#000" stroke-linecap="round" stroke-linejoin="round" stroke-width="2"/>
    <path id="Path_4678" data-name="Path 4678" d="M48.4,54.9a24.363,24.363,0,0,1-6.7,4.353" transform="translate(18 35.662)" fill="none" stroke="#000" stroke-linecap="round" stroke-linejoin="round" stroke-width="2"/>
    <path id="Path_4679" data-name="Path 4679" d="M30.01,58.794l-.67,2.176-.335,1a1.715,1.715,0,0,1-.837,1,1.779,1.779,0,0,1-1.339.167l-.837-.335-.837-.335a1.509,1.509,0,0,1-1-1,1.834,1.834,0,0,1,0-1.339l.5-1.339.67-2.009A2.025,2.025,0,0,1,27.5,55.613l1.674.67a2.507,2.507,0,0,1,.837,2.511Z" transform="translate(6.084 36.121)" fill="none" stroke="#000" stroke-linecap="round" stroke-linejoin="round" stroke-width="2"/>
    <path id="Path_4680" data-name="Path 4680" d="M34.231,60.474c-2.511-.5-4.855-1-7.031-1.674" transform="translate(8.225 38.291)" fill="none" stroke="#000" stroke-linecap="round" stroke-linejoin="round" stroke-width="2"/>
    <path id="Path_4681" data-name="Path 4681" d="M23.5,56.053l-1.172,1.172L21.153,58.4a1.821,1.821,0,0,1-2.511,0l-.67-.67-.67-.5a1.9,1.9,0,0,1-.5-1.339,1.52,1.52,0,0,1,.5-1.172l1.507-1.507,1-1a1.821,1.821,0,0,1,2.511,0l1.339,1.339a2.024,2.024,0,0,1-.167,2.511Z" transform="translate(1.213 33.505)" fill="none" stroke="#000" stroke-linecap="round" stroke-linejoin="round" stroke-width="2"/>
    <path id="Path_4682" data-name="Path 4682" d="M19.565,79.026c-5.86-8.873-5.19-22.768,2.679-44.365,2.009-5.357,8.2-21.262,8.2-21.262" transform="translate(0.458 7.685)" fill="none" stroke="#000" stroke-linecap="round" stroke-linejoin="round" stroke-width="2"/>
    <path id="Path_4683" data-name="Path 4683" d="M26.964,59.453A28.257,28.257,0,0,1,20.1,55.1" transform="translate(3.438 35.797)" fill="none" stroke="#000" stroke-linecap="round" stroke-linejoin="round" stroke-width="2"/>
    <path id="Path_4684" data-name="Path 4684" d="M41.631,58.6A43.136,43.136,0,0,1,34.6,60.442" transform="translate(13.213 38.156)" fill="none" stroke="#000" stroke-linecap="round" stroke-linejoin="round" stroke-width="2"/>
    <path id="Path_4685" data-name="Path 4685" d="M33.3,2l1.842,2.679A156.3,156.3,0,0,1,54.9,41.51c.167.335.167.5.335.837,8.036,21.6,8.371,35.324,2.344,44.03" transform="translate(12.337)" fill="none" stroke="#000" stroke-linecap="round" stroke-linejoin="round" stroke-width="2"/>
    <path id="Path_4686" data-name="Path 4686" d="M29.737,13.7c-.837,2.344-4.52,3.181-4.52,3.181s-2.176-3.013-1.339-5.357S26.891,7.84,28.4,8.342C30.071,9.012,30.574,11.356,29.737,13.7Z" transform="translate(5.855 4.205)" fill="none" stroke="#000" stroke-linecap="round" stroke-linejoin="round" stroke-width="2"/>
  </g>
</svg>
