<svg xmlns="http://www.w3.org/2000/svg" width="81" height="81" viewBox="0 0 81 81">
  <g id="_41" data-name="41" transform="translate(1.5 1.501)">
    <path id="Union_1" data-name="Union 1" d="M-1102.472-3144.208a3.047,3.047,0,0,1-1.119-4.162,3.047,3.047,0,0,1,4.162-1.119,32.948,32.948,0,0,0,16.429,4.395A32.943,32.943,0,0,0-1050.094-3178,32.944,32.944,0,0,0-1083-3210.907a32.911,32.911,0,0,0-29.644,18.688h12.348a3.047,3.047,0,0,1,3.047,3.047,3.047,3.047,0,0,1-3.047,3.047h-18.657a3.048,3.048,0,0,1-3.047-3.047v-18.657a3.047,3.047,0,0,1,3.047-3.047,3.047,3.047,0,0,1,3.047,3.047v9.025a39.667,39.667,0,0,1,9.9-10.611A38.562,38.562,0,0,1-1083-3217a38.714,38.714,0,0,1,27.527,11.473A38.713,38.713,0,0,1-1044-3178a38.713,38.713,0,0,1-11.472,27.527A38.713,38.713,0,0,1-1083-3139,39.06,39.06,0,0,1-1102.472-3144.208Z" transform="translate(1122 3217)" stroke="#dfd6d4" stroke-width="3"/>
  </g>
</svg>
