<svg xmlns="http://www.w3.org/2000/svg" width="91.325" height="104.819" viewBox="0 0 91.325 104.819">
  <path id="package_5733341" d="M122.74,25.356,79.2.218a1.622,1.622,0,0,0-1.622,0L34.037,25.356a1.621,1.621,0,0,0-.811,1.4V77.037a1.621,1.621,0,0,0,.811,1.4L77.578,103.58a1.622,1.622,0,0,0,1.622,0L122.74,78.441a1.621,1.621,0,0,0,.811-1.4V26.76A1.621,1.621,0,0,0,122.74,25.356ZM78.388,3.495l40.3,23.266-12.217,7.054L65.975,10.661Zm0,46.531L38.091,26.76,50.1,19.829,90.59,42.981ZM53.349,17.952l9.375-5.413,40.493,23.152L93.842,41.1Zm51.5,20.542V54.546l-9.383,5.417V43.911ZM36.47,29.569l40.3,23.266V99.366L36.47,76.1Zm43.541,69.8V52.835l12.213-7.051V62.772a1.622,1.622,0,0,0,2.433,1.4l12.627-7.29a1.621,1.621,0,0,0,.811-1.4V36.621l12.213-7.051V76.1ZM63.142,54.18a1.621,1.621,0,0,1-2.215.594L41.579,43.6A1.622,1.622,0,1,1,43.2,40.794L62.549,51.965a1.622,1.622,0,0,1,.594,2.215ZM53.468,57.5a1.621,1.621,0,0,1-2.215.594l-9.674-5.585A1.622,1.622,0,1,1,43.2,49.7l9.674,5.585a1.621,1.621,0,0,1,.593,2.215Z" transform="translate(-32.726 0.522)" stroke="#dfd6d4" stroke-width="1"/>
</svg>
