<svg xmlns="http://www.w3.org/2000/svg" width="228.754" height="189.608" viewBox="0 0 228.754 189.608">
  <path id="Path_4598" data-name="Path 4598" d="M134.8-742,99.329-606.216l-9.786-45.873q21.407,0,35.475,13.456t14.068,36.087q0,22.631-14.068,36.393T90.155-552.391q-22.019,0-36.087-14.068T40-602.546a97.438,97.438,0,0,1,.917-13.762,92.148,92.148,0,0,1,3.976-15.6q3.058-9.175,8.563-23.242L85.873-742Zm129.668,0L229-606.216l-9.786-45.873q21.407,0,35.475,13.456t14.068,36.087q0,22.631-14.068,36.393t-34.864,13.762q-22.019,0-36.087-14.068t-14.068-36.087a97.437,97.437,0,0,1,.917-13.762,92.147,92.147,0,0,1,3.976-15.6q3.058-9.175,8.563-23.242L215.541-742Z" transform="translate(-40 742)" fill="#2e2e2e" opacity="0.1"/>
</svg>
