<svg xmlns="http://www.w3.org/2000/svg" width="83.352" height="89.118" viewBox="0 0 83.352 89.118">
  <g id="warranty_4400863" transform="translate(-3.388 -1.382)">
    <path id="Path_4770" data-name="Path 4770" d="M37.984,66.313a4.165,4.165,0,0,0,1.225.186,4.116,4.116,0,0,0,1.2-.18,54.922,54.922,0,0,0,16.484-7.887A1.467,1.467,0,0,0,55.2,56.04a52.036,52.036,0,0,1-15.628,7.467,1.229,1.229,0,0,1-.748,0A51.438,51.438,0,0,1,19.049,52.782a1.467,1.467,0,1,0-1.933,2.2A54.339,54.339,0,0,0,37.984,66.313Z" transform="translate(5.859 23.502)" stroke="#dfd6d4" stroke-width="1"/>
    <path id="Path_4771" data-name="Path 4771" d="M6.3,15.057a1.467,1.467,0,0,0-1.649,1.26C3.619,24.048,2.387,43.874,13.24,61.006a1.467,1.467,0,1,0,2.479-1.569C5.379,43.121,6.568,24.119,7.558,16.706A1.467,1.467,0,0,0,6.3,15.057Z" transform="translate(0 6.086)" stroke="#dfd6d4" stroke-width="1"/>
    <path id="Path_4772" data-name="Path 4772" d="M13.213,48.651a1.467,1.467,0,0,0-.223,2.064c.44.546.911,1.091,1.395,1.637a1.469,1.469,0,0,0,2.2-1.946c-.453-.512-.893-1.027-1.3-1.531a1.467,1.467,0,0,0-2.068-.223Z" transform="translate(4.044 21.618)" stroke="#dfd6d4" stroke-width="1"/>
    <path id="Path_4773" data-name="Path 4773" d="M72.54,17.573a79.8,79.8,0,0,1-15.582-4.378A79.83,79.83,0,0,1,38.5,2.878a4.347,4.347,0,0,0-5.226,0,80.523,80.523,0,0,1-8.859,5.761A1.467,1.467,0,0,0,25.851,11.2a83.518,83.518,0,0,0,9.188-5.986,1.393,1.393,0,0,1,1.7,0A82.769,82.769,0,0,0,55.881,15.918a82.821,82.821,0,0,0,16.171,4.547,1.423,1.423,0,0,1,1.173,1.223c.943,6.2,2.379,22.276-4.649,37.642a1.467,1.467,0,1,0,2.667,1.222c7.358-16.086,5.867-32.846,4.884-39.308a4.362,4.362,0,0,0-3.586-3.671Z" transform="translate(9.179)" stroke="#dfd6d4" stroke-width="1"/>
    <path id="Path_4774" data-name="Path 4774" d="M40.85,71.825a4.147,4.147,0,0,0,1.415.254,4.069,4.069,0,0,0,1.393-.248,47.436,47.436,0,0,0,5.9-2.539,1.467,1.467,0,0,0-1.344-2.609,44.3,44.3,0,0,1-5.551,2.391,1.138,1.138,0,0,1-.829,0,41.8,41.8,0,0,1-17.2-11.222C13.574,45.779,12.6,29.616,13,21.087a1.781,1.781,0,0,1,.169-.656,1.467,1.467,0,0,0-2.64-1.267,4.77,4.77,0,0,0-.45,1.76c-.425,9.016.622,26.062,12.41,38.916A44.66,44.66,0,0,0,40.85,71.825Z" transform="translate(2.802 7.655)" stroke="#dfd6d4" stroke-width="1"/>
    <path id="Path_4775" data-name="Path 4775" d="M50.68,46.015a1.442,1.442,0,0,0,.5.091,1.467,1.467,0,0,0,1.377-.964,62.029,62.029,0,0,0,3.359-23.888,4.491,4.491,0,0,0-1.481-3.124,1.467,1.467,0,1,0-1.96,2.174,1.569,1.569,0,0,1,.513,1.093A59.066,59.066,0,0,1,49.81,44.131a1.467,1.467,0,0,0,.87,1.885Z" transform="translate(21.338 7.317)" stroke="#dfd6d4" stroke-width="1"/>
    <path id="Path_4776" data-name="Path 4776" d="M32.244,12.054a1.357,1.357,0,0,1,1.3.1,89.323,89.323,0,0,0,13.286,7.067,1.467,1.467,0,0,0,1.153-2.7,86.59,86.59,0,0,1-12.85-6.838,4.3,4.3,0,0,0-4.069-.314,1.467,1.467,0,0,0,1.173,2.684Z" transform="translate(12.253 3.265)" stroke="#dfd6d4" stroke-width="1"/>
    <path id="Path_4777" data-name="Path 4777" d="M48.523,19.322a1.451,1.451,0,0,0,.422.062,1.467,1.467,0,0,0,.419-2.872c-.708-.213-1.415-.453-2.124-.708a1.467,1.467,0,1,0-.994,2.76C47.006,18.837,47.765,19.1,48.523,19.322Z" transform="translate(19.264 6.399)" stroke="#dfd6d4" stroke-width="1"/>
    <path id="Path_4778" data-name="Path 4778" d="M29.7,32.972a4.664,4.664,0,0,0-6.528,0l-1.836,1.873a4.724,4.724,0,0,0,0,6.577L32.57,52.89a4.556,4.556,0,0,0,6.527,0l20.64-21.063a4.724,4.724,0,0,0,0-6.577L57.9,23.377A4.532,4.532,0,0,0,54.638,22h0a4.538,4.538,0,0,0-3.265,1.377L37,38.044a1.66,1.66,0,0,1-2.335,0ZM39.1,40.1,53.471,25.429a1.624,1.624,0,0,1,2.336,0L57.643,27.3a1.773,1.773,0,0,1,0,2.47L37,50.838a1.66,1.66,0,0,1-2.335,0L23.428,39.369a1.773,1.773,0,0,1,0-2.47l1.836-1.874a1.663,1.663,0,0,1,2.336,0L32.57,40.1a4.664,4.664,0,0,0,6.527,0Z" transform="translate(7.467 9.332)" stroke="#dfd6d4" stroke-width="1"/>
    <path id="Path_4779" data-name="Path 4779" d="M9,18.667a1.467,1.467,0,0,0,1.2,1.442c9.3,1.713,10.311,2.724,12.027,12.027a1.467,1.467,0,0,0,2.884,0c1.713-9.3,2.724-10.311,12.027-12.027a1.467,1.467,0,0,0,0-2.884C27.838,15.512,26.828,14.5,25.112,5.2a1.467,1.467,0,0,0-2.884,0C20.515,14.5,19.5,15.509,10.2,17.225A1.467,1.467,0,0,0,9,18.667ZM23.667,11.76a9.68,9.68,0,0,0,6.907,6.907,9.68,9.68,0,0,0-6.907,6.907,9.68,9.68,0,0,0-6.907-6.907A9.68,9.68,0,0,0,23.667,11.76Z" transform="translate(2.334 0.931)" stroke="#dfd6d4" stroke-width="1"/>
    <path id="Path_4780" data-name="Path 4780" d="M68.134,53.225C58.833,51.512,57.823,50.5,56.107,41.2a1.467,1.467,0,0,0-2.884,0C51.51,50.5,50.5,51.509,41.2,53.225a1.467,1.467,0,0,0,0,2.884c9.3,1.713,10.311,2.724,12.027,12.027a1.467,1.467,0,0,0,2.884,0c1.713-9.3,2.724-10.311,12.027-12.027a1.467,1.467,0,0,0,0-2.884ZM54.668,61.574a9.68,9.68,0,0,0-6.907-6.907,9.68,9.68,0,0,0,6.907-6.907,9.68,9.68,0,0,0,6.907,6.907,9.68,9.68,0,0,0-6.907,6.907Z" transform="translate(16.801 17.733)" stroke="#dfd6d4" stroke-width="1"/>
  </g>
</svg>
