<svg xmlns="http://www.w3.org/2000/svg" width="794.322" height="261.081" viewBox="0 0 794.322 261.081">
  <g id="Group_12963" data-name="Group 12963" transform="translate(-756.488 -251.205)">
    <rect id="Rectangle_800" data-name="Rectangle 800" width="2.622" height="30.087" transform="translate(764.825 251.764)"/>
    <path id="Path_4729" data-name="Path 4729" d="M768.556,251.466h2.451l18.307,25.573V251.466h2.579v30.087h-2.448l-18.311-25.616v25.616h-2.577Z" transform="translate(13.762 0.298)"/>
    <path id="Path_4730" data-name="Path 4730" d="M795.262,253.96H784.9v-2.493h23.338v2.493h-10.4v27.594h-2.579Z" transform="translate(32.402 0.298)"/>
    <path id="Path_4731" data-name="Path 4731" d="M801.25,251.466h11.13c6.062,0,10.015,3.656,10.015,9.371a8.786,8.786,0,0,1-7.693,9.2l8.168,11.519h-3.14l-8.08-11.3h-7.778v11.3H801.25Zm10.873,16.288c4.771,0,7.607-2.62,7.607-6.918,0-4.255-2.836-6.875-7.607-6.875h-8.251v13.792Z" transform="translate(51.045 0.298)"/>
    <path id="Path_4732" data-name="Path 4732" d="M816.232,266.808c0-9.2,6.361-15.6,15.516-15.6,9.2,0,15.515,6.406,15.515,15.6s-6.318,15.6-15.515,15.6c-9.154,0-15.516-6.4-15.516-15.6m15.516,12.979c7.65,0,12.893-5.287,12.893-12.979,0-7.737-5.244-12.981-12.893-12.981-7.607,0-12.851,5.244-12.851,12.981,0,7.692,5.244,12.979,12.851,12.979" transform="translate(68.13 0)"/>
    <path id="Path_4733" data-name="Path 4733" d="M836.7,251.466h9.5c9.584,0,15.646,5.974,15.646,15.045s-6.062,15.042-15.646,15.042h-9.5Zm9.5,27.594c7.994,0,12.979-4.9,12.979-12.549s-5.028-12.551-13.065-12.551h-6.791v25.1Z" transform="translate(91.466 0.298)"/>
    <path id="Path_4734" data-name="Path 4734" d="M854.228,269.691V251.466H856.8v18.095c0,6.406,3.181,9.974,8.769,9.974s8.767-3.568,8.767-9.974V251.466h2.579v18.225c0,7.735-4.3,12.378-11.346,12.378s-11.346-4.642-11.346-12.378" transform="translate(111.459 0.298)"/>
    <path id="Path_4735" data-name="Path 4735" d="M870.614,266.807c0-9.154,6.4-15.6,15.259-15.6a14.688,14.688,0,0,1,14.484,10.314H897.6c-1.717-4.769-6.188-7.692-11.691-7.692-7.348,0-12.635,5.285-12.635,12.979s5.287,12.979,12.635,12.979c5.631,0,10.274-3.05,11.95-8.035h2.752c-1.851,6.49-7.654,10.657-14.743,10.657-8.855,0-15.259-6.447-15.259-15.6" transform="translate(130.145 0.001)"/>
    <rect id="Rectangle_801" data-name="Rectangle 801" width="2.622" height="30.087" transform="translate(1043.358 251.764)"/>
    <path id="Path_4736" data-name="Path 4736" d="M898.69,251.466h2.451l18.307,25.573V251.466h2.579v30.087h-2.448l-18.311-25.616v25.616H898.69Z" transform="translate(162.161 0.298)"/>
    <path id="Path_4737" data-name="Path 4737" d="M915.559,266.807c0-9.112,6.318-15.6,15.128-15.6,6.963,0,12.423,4,14.355,9.844h-2.836c-1.892-4.471-6.016-7.222-11.389-7.222-7.479,0-12.594,5.285-12.594,12.979s5.156,12.979,12.594,12.979c7,0,11.776-4.683,12.335-11.258H929.829v-2.494h16.117c.086,9.542-6.016,16.374-15.173,16.374-8.9,0-15.214-6.49-15.214-15.6" transform="translate(181.398 0.001)"/>
    <path id="Path_4738" data-name="Path 4738" d="M762.348,362.07V309.888c0-11.721-.7-18.137-5.86-22.741H790.67c18.837,0,30.834,11.021,30.834,26.789,0,15.349-12.416,25.53-27.623,25.53-10.464,0-19.953-7.395-22.6-18.557V362.07c0,11.719.7,18.137,5.862,22.741h-20.65c5.161-4.6,5.86-11.023,5.86-22.741m31.532-24c14.509,0,18.694-11.162,18.694-24.137,0-13.953-7.115-25.671-21.9-25.671-16.183,0-19.394,11.021-19.394,21.624,0,18.835,10.884,28.184,22.6,28.184" transform="translate(0 40.987)"/>
    <path id="Path_4739" data-name="Path 4739" d="M796.635,357.884V314.075c0-11.719-.7-19.113-5.86-26.928h20.648c-5.163,7.814-5.858,15.209-5.858,26.928v43.809c0,11.721.7,19.116,5.858,26.928H790.775c5.163-7.812,5.86-15.207,5.86-26.928" transform="translate(39.099 40.987)"/>
    <path id="Path_4740" data-name="Path 4740" d="M804.333,337.171c0-30.136,25.113-51.067,51.2-51.067,30.278,0,50.923,25.254,50.923,51.2a50.366,50.366,0,0,1-49.947,50.926c-31.112,0-52.18-24.835-52.18-51.063m55.947,49.111c21.487,0,36.7-17.3,36.7-42.694,0-25.532-18.7-55.529-46.461-55.529-19.955,0-36.557,17.579-36.557,42.694,0,26.089,19.255,55.529,46.322,55.529" transform="translate(54.56 39.797)"/>
    <path id="Path_4741" data-name="Path 4741" d="M864.048,301.935v55.949c0,11.718.839,19.255,5.86,26.928H856.794c5.16-7.814,5.86-15.209,5.86-26.928v-57.9L854,287.147h11.721l55.249,81.62.139-54.693c0-11.721-.7-19.116-5.858-26.928h13.114c-5.023,7.673-5.86,15.207-5.86,26.928l-.139,72.969h-.7Z" transform="translate(111.202 40.987)"/>
    <path id="Path_4742" data-name="Path 4742" d="M898.516,357.884V314.075c0-11.719-.7-19.113-5.858-26.928h61.666v16.6h-.417c-2.93-6-9.769-15.486-22.6-15.486-20.511,0-23.859,13.116-23.859,20.368,0,17.022,13.116,24.139,26.51,24.139a35.225,35.225,0,0,0,10.182-1.4V341.7c-16.742-2.091-32.506-10.045-36.692-25.113v66.831h.28c35.857,0,46.459-7.814,50.087-17.161h.417v18.557H892.658c5.162-7.812,5.858-15.207,5.858-26.928" transform="translate(155.283 40.987)"/>
    <path id="Path_4743" data-name="Path 4743" d="M933.064,357.884V314.075c0-11.719-.7-19.113-5.86-26.928h61.668v16.6h-.419c-2.93-6-9.769-15.486-22.6-15.486-20.511,0-23.856,13.116-23.856,20.368,0,17.022,13.116,24.139,26.51,24.139a35.21,35.21,0,0,0,10.179-1.4V341.7c-16.74-2.091-32.5-10.045-36.69-25.113v66.831h.28c35.855,0,46.459-7.814,50.087-17.161h.417v18.557H927.2c5.165-7.812,5.86-15.207,5.86-26.928" transform="translate(194.678 40.987)"/>
    <path id="Path_4744" data-name="Path 4744" d="M967.611,357.884V314.075c0-11.719-.7-19.116-5.86-26.928h33.9c18.557,0,31.112,11.021,31.112,26.789,0,16.325-14.09,25.53-27.206,25.53a22.585,22.585,0,0,1-4.324-.417l11.718,23.022c6.278,12.416,11.858,19.811,18.835,22.741h-24.137a8.27,8.27,0,0,0,1.815-5.441c0-3.208-1.4-7.256-3.908-12.277L976.539,321.47v36.414c0,11.718.7,19.116,5.863,26.928h-20.65c5.163-7.812,5.86-15.209,5.86-26.928m31.532-19.811c14.509,0,18.694-11.021,18.694-24.137,0-14.233-7.115-25.671-22.183-25.671-16.6,0-19.116,11.021-19.116,21.624,0,16.742,10.605,28.184,22.6,28.184" transform="translate(234.073 40.987)"/>
    <path id="Path_4745" data-name="Path 4745" d="M997.573,383.21l-1.535-27.765h.419c4.882,18,17.718,31.391,34.6,31.391,14.79,0,24.554-7.532,24.554-20.089,0-12.416-7.4-18.835-28.6-26.228-20.229-7.258-28.462-15.49-28.462-29.858,0-13.536,12.277-24.556,29.3-24.556a76.288,76.288,0,0,1,26.928,5.023l1.393,28.043h-.417c-1.815-14.231-11.023-31.673-27.9-31.673-12.56,0-23.861,5.582-23.861,19.535,0,15.346,16.324,19.811,31.812,25.532,23.578,8.649,26.789,19.811,26.789,28.043,0,17.44-14.092,27.626-32.929,27.626a108.942,108.942,0,0,1-32.088-5.023" transform="translate(273.173 39.797)"/>
    <path id="Path_4746" data-name="Path 4746" d="M772.529,354.56c-8.628,0-14.655,6-14.655,14.6,0,8.628,6.027,14.653,14.655,14.653,8.6,0,14.6-6.025,14.6-14.653,0-8.594-6-14.6-14.6-14.6m0,27.2c-7.354,0-12.489-5.184-12.489-12.6,0-7.386,5.135-12.545,12.489-12.545,7.32,0,12.433,5.158,12.433,12.545,0,7.419-5.113,12.6-12.433,12.6" transform="translate(1.581 117.862)"/>
    <path id="Path_4747" data-name="Path 4747" d="M783.3,358.034v3.889h-6.59v1.883h6.59v25.913h2.164V363.806h10.668v-1.883H785.468v-3.666c0-5.2,2.232-7.519,7.239-7.519h3.707v-2h-3.985c-6.139,0-9.125,3.041-9.125,9.293" transform="translate(23.065 111.225)"/>
    <path id="Path_4748" data-name="Path 4748" d="M801.241,369.155c0-7.386,4.951-12.545,12.04-12.545a11.79,11.79,0,0,1,11.246,7.2h2.224c-1.824-5.646-7.035-9.255-13.469-9.255-8.364,0-14.205,6-14.205,14.6,0,8.628,5.841,14.655,14.205,14.655a13.836,13.836,0,0,0,13.737-9.76h-2.3a11.675,11.675,0,0,1-11.438,7.707c-7.089,0-12.04-5.184-12.04-12.6" transform="translate(48.564 117.862)"/>
    <path id="Path_4749" data-name="Path 4749" d="M821.331,370.053V354.9h-2.164v15.434c0,8.076,4.394,13.091,11.468,13.091a11.31,11.31,0,0,0,10.3-6.079l.9-1.682.417,7.035h1.637V354.9h-2.164v14.373c0,7.125-4.379,12.1-10.646,12.1-5.922,0-9.751-4.441-9.751-11.318" transform="translate(71.477 118.248)"/>
    <path id="Path_4750" data-name="Path 4750" d="M850.127,368.175c-5.558-1.064-9.261-2.519-9.261-6.168,0-3.465,3.159-5.618,8.245-5.618,5.135,0,8.236,2.076,8.8,5.865h2.164c-.668-4.9-4.63-7.692-10.963-7.692-6.421,0-10.409,2.832-10.409,7.391,0,4.135,3.335,6.629,10.5,7.851,6.451,1.113,9.328,3.1,9.328,6.447,0,3.5-3.33,5.676-8.692,5.676-5.509,0-8.951-2.352-9.529-6.481h-2.13c.486,5.178,4.876,8.365,11.6,8.365,6.594,0,10.856-2.945,10.856-7.5,0-4.062-3.536-6.8-10.509-8.129" transform="translate(93.155 117.862)"/>
    <path id="Path_4751" data-name="Path 4751" d="M862.37,376.908V360.564h10V358.68h-10v-7.1h-1.526l-.251,3.91c-.252,2.416-1.113,3.185-3.549,3.185h-3.151v1.884h6.312v16.453c0,6.188,3.078,9.46,8.9,9.46h3.649v-2.053h-3.538c-4.608,0-6.849-2.457-6.849-7.517" transform="translate(111.078 114.469)"/>
    <path id="Path_4752" data-name="Path 4752" d="M882.69,354.56c-8.628,0-14.655,6-14.655,14.6,0,8.628,6.027,14.653,14.655,14.653,8.6,0,14.6-6.025,14.6-14.653,0-8.594-6-14.6-14.6-14.6m0,27.2c-7.352,0-12.487-5.184-12.487-12.6,0-7.386,5.135-12.545,12.487-12.545,7.32,0,12.433,5.158,12.433,12.545,0,7.419-5.113,12.6-12.433,12.6" transform="translate(127.203 117.862)"/>
    <path id="Path_4753" data-name="Path 4753" d="M923.048,354.56c-4.889,0-8.623,2.346-10.511,6.6l-.529,1.194-.464-1.222c-1.588-4.178-5.25-6.575-10.053-6.575-4.311,0-7.607,1.779-9.531,5.145l-.895,1.567-.355-5.987h-1.7v27.8h2.166V367.758c0-6.77,3.872-11.147,9.863-11.147,5.824,0,9.585,4.289,9.585,10.924v15.55H912.8V367.758c0-6.77,3.872-11.147,9.863-11.147,5.856,0,9.64,4.289,9.64,10.924v15.55h2.164V367.032c0-7.692-4.373-12.472-11.415-12.472" transform="translate(151.127 117.862)"/>
    <path id="Path_4754" data-name="Path 4754" d="M933.986,358.255c0-5.2,2.284-7.517,7.408-7.517h3.371v-2h-3.651c-6.252,0-9.291,3.039-9.291,9.291v3.889H925.23V363.8h6.592V389.72h2.164V363.8h19.28V389.72h2.166v-27.8H933.986Z" transform="translate(192.426 111.226)"/>
    <path id="Path_4755" data-name="Path 4755" d="M940.156,349.705a2.4,2.4,0,1,0,2.423,2.369,2.318,2.318,0,0,0-2.423-2.369" transform="translate(206.621 112.325)"/>
    <path id="Path_4756" data-name="Path 4756" d="M950.776,360.592l-.912,1.648-.349-6.952h-1.689v27.8h2.166V368.65c0-7.089,4.471-12.039,10.869-12.039,6.085,0,9.865,4.336,9.865,11.316v15.158h2.166V367.65c0-8.073-4.46-13.09-11.639-13.09a11.613,11.613,0,0,0-10.477,6.032" transform="translate(218.194 117.862)"/>
    <path id="Path_4757" data-name="Path 4757" d="M966.561,369.155c0,8.767,5.711,14.655,14.208,14.655,5.969,0,10.826-2.93,13.148-7.874l-2.5-.039c-2.046,3.765-5.91,5.916-10.653,5.916-6.7,0-11.4-4.424-11.984-11.269l-.051-.584h26.305c0-4.649-1.47-8.7-4.159-11.451a13.67,13.67,0,0,0-10.055-3.949c-8.4,0-14.263,6-14.263,14.6m26.356-1.569.071.6H968.734l.051-.582c.587-6.71,5.312-11.046,12.039-11.046,6.648,0,11.282,4.227,12.093,11.029" transform="translate(239.559 117.862)"/>
    <path id="Path_4758" data-name="Path 4758" d="M992.287,392.036v2h2.367c5.88,0,8.065-2.337,8.065-8.626V354.9h-2.166v30.459c0,4.931-1.588,6.678-6.066,6.678Z" transform="translate(268.896 118.248)"/>
    <path id="Path_4759" data-name="Path 4759" d="M997.947,349.705a2.294,2.294,0,0,0-2.423,2.369,2.424,2.424,0,1,0,2.423-2.369" transform="translate(272.587 112.325)"/>
    <path id="Path_4760" data-name="Path 4760" d="M1004.473,369.155c0,8.767,5.71,14.655,14.208,14.655,5.967,0,10.824-2.928,13.148-7.874l-2.5-.039c-2.046,3.765-5.912,5.916-10.652,5.916-6.7,0-11.4-4.424-11.984-11.269l-.052-.584h26.3c0-4.649-1.47-8.7-4.158-11.451a13.671,13.671,0,0,0-10.056-3.949c-8.4,0-14.263,6-14.263,14.6m26.356-1.569.071.6h-24.255l.052-.582c.586-6.71,5.312-11.046,12.039-11.046,6.646,0,11.279,4.227,12.093,11.029" transform="translate(282.792 117.862)"/>
    <path id="Path_4761" data-name="Path 4761" d="M1005.762,366.3h23.065c-.781-6.537-5.25-10.556-11.56-10.556-6.423,0-10.948,4.189-11.5,10.556m22.448-.537h-21.851c.753-5.781,4.976-9.482,10.907-9.482,5.86,0,10.006,3.615,10.944,9.482" transform="translate(284.262 119.211)"/>
    <path id="Path_4762" data-name="Path 4762" d="M1005.542,366.537l-.054.584h24.255l-.071-.6c-.813-6.8-5.447-11.029-12.091-11.029-6.727,0-11.455,4.334-12.039,11.044m23.6.047h-23.064c.554-6.367,5.079-10.556,11.5-10.556,6.31,0,10.775,4.02,11.56,10.556" transform="translate(283.949 118.926)"/>
    <path id="Path_4763" data-name="Path 4763" d="M1043.389,354.9l-9.662,25.017-8.9-25.017h-2.32l10,27.8h2.38l9.641-25.089,9.64,25.089h2.38l10.056-27.8h-2.262l-8.958,25.012-9.715-25.012Z" transform="translate(303.355 118.248)"/>
    <path id="Path_4764" data-name="Path 4764" d="M1047.891,369.155c0,8.767,5.711,14.655,14.208,14.655,5.967,0,10.824-2.928,13.15-7.874l-2.5-.039c-2.046,3.765-5.909,5.916-10.652,5.916-6.7,0-11.4-4.424-11.984-11.269l-.052-.584h26.305c0-4.649-1.47-8.7-4.159-11.451a13.671,13.671,0,0,0-10.055-3.949c-8.4,0-14.264,6-14.264,14.6m26.356-1.569.071.6h-24.255l.052-.582c.586-6.71,5.312-11.046,12.04-11.046,6.646,0,11.28,4.227,12.093,11.029" transform="translate(332.304 117.862)"/>
    <path id="Path_4769" data-name="Path 4769" d="M1047.891,369.155c0,8.767,5.711,14.655,14.208,14.655,5.967,0,10.824-2.928,13.15-7.874l-2.5-.039c-2.046,3.765-5.909,5.916-10.652,5.916-6.7,0-11.4-4.424-11.984-11.269l-.052-.584h26.305c0-4.649-1.47-8.7-4.159-11.451a13.671,13.671,0,0,0-10.055-3.949c-8.4,0-14.264,6-14.264,14.6m26.356-1.569.071.6h-24.255l.052-.582c.586-6.71,5.312-11.046,12.04-11.046,6.646,0,11.28,4.227,12.093,11.029" transform="translate(405.187 117.862)"/>
    <path id="Path_4765" data-name="Path 4765" d="M1049.18,366.3h23.064c-.784-6.537-5.25-10.556-11.56-10.556-6.423,0-10.948,4.189-11.5,10.556m22.448-.537h-21.851c.754-5.781,4.977-9.482,10.907-9.482,5.86,0,10.006,3.615,10.943,9.482" transform="translate(333.774 119.211)"/>
    <path id="Path_4766" data-name="Path 4766" d="M1048.958,366.537l-.052.584h24.255l-.071-.6c-.813-6.8-5.447-11.029-12.093-11.029-6.727,0-11.453,4.334-12.04,11.044m23.6.047h-23.064c.556-6.367,5.081-10.556,11.5-10.556,6.31,0,10.776,4.02,11.56,10.556" transform="translate(333.462 118.926)"/>
    <rect id="Rectangle_802" data-name="Rectangle 802" width="2.166" height="40.254" transform="translate(1424.201 460.69)"/>
    <rect id="Rectangle_804" data-name="Rectangle 804" width="2.166" height="40.254" transform="translate(1440.675 460.69)"/>
    <path id="Path_4767" data-name="Path 4767" d="M1080.976,361.059l-.912,2.029-.424-8.189h-1.691v27.8h2.166V369.941c0-8.448,3.859-13.1,10.868-13.1h1.976V354.9H1091.1c-5.088,0-8.21,1.9-10.122,6.16" transform="translate(417.915 118.248)"/>
    <path id="Path_4768" data-name="Path 4768" d="M1114.78,354.9l-5.725,13.906-4.585,11.4L1092.3,354.9h-2.436l13.467,27.87-1.706,4.3c-1.588,3.821-3.1,4.807-7.369,4.807h-1.864v2h2.2c5.143,0,7.065-1.284,8.94-5.976l13.5-32.994Z" transform="translate(433.78 118.248)"/>
  </g>
</svg>
